<mxfile host="drawio-plugin" modified="2024-06-28T07:57:33.823Z" agent="5.0 (Windows NT 10.0; Win64; x64) AppleWebKit/537.36 (KHTML, like Gecko) Chrome/122.0.0.0 Safari/537.36" etag="bOxg4Rwyt-8WxruYdKUi" version="20.5.3" type="embed"><diagram name="Страница — 1" id="0DWxeoIXpPHMEeJVlk92"><mxGraphModel dx="831" dy="486" grid="1" gridSize="10" guides="1" tooltips="1" connect="1" arrows="1" fold="1" page="1" pageScale="1" pageWidth="827" pageHeight="1169" math="0" shadow="0"><root><mxCell id="0"/><mxCell id="1" parent="0"/><mxCell id="mDbuYBa9yOLomnzeckiS-1" value="Copmany Local Network" style="rounded=0;whiteSpace=wrap;html=1;align=left;horizontal=1;verticalAlign=top;fillColor=#f5f5f5;fontColor=#333333;strokeColor=#666666;" parent="1" vertex="1"><mxGeometry x="20" y="330" width="1310" height="780" as="geometry"/></mxCell><mxCell id="mDbuYBa9yOLomnzeckiS-17" value="HR Easy Server / Servers" style="rounded=0;whiteSpace=wrap;html=1;align=left;horizontal=1;verticalAlign=top;fillColor=#f5f5f5;fontColor=#333333;strokeColor=#666666;" parent="1" vertex="1"><mxGeometry x="630" y="336" width="690" height="664" as="geometry"/></mxCell><object placeholders="1" c4Name="HR Easy" c4Type="SystemScopeBoundary" c4Application="Docker Network" label="&lt;font style=&quot;font-size: 16px&quot;&gt;&lt;b&gt;&lt;div style=&quot;text-align: left&quot;&gt;%c4Name%&lt;/div&gt;&lt;/b&gt;&lt;/font&gt;&lt;div style=&quot;text-align: left&quot;&gt;[%c4Application%]&lt;/div&gt;" id="mDbuYBa9yOLomnzeckiS-37"><mxCell style="rounded=1;fontSize=11;whiteSpace=wrap;html=1;dashed=1;arcSize=20;fillColor=#d5e8d4;strokeColor=#82b366;labelBackgroundColor=none;align=left;verticalAlign=bottom;labelBorderColor=none;spacingTop=0;spacing=10;dashPattern=8 4;metaEdit=1;rotatable=0;perimeter=rectanglePerimeter;noLabel=0;labelPadding=0;allowArrows=0;connectable=0;expand=0;recursiveResize=0;editable=1;pointerEvents=0;absoluteArcSize=1;points=[[0.25,0,0],[0.5,0,0],[0.75,0,0],[1,0.25,0],[1,0.5,0],[1,0.75,0],[0.75,1,0],[0.5,1,0],[0.25,1,0],[0,0.75,0],[0,0.5,0],[0,0.25,0]];" parent="1" vertex="1"><mxGeometry x="840" y="339" width="470" height="644" as="geometry"/></mxCell></object><mxCell id="mDbuYBa9yOLomnzeckiS-13" style="edgeStyle=orthogonalEdgeStyle;rounded=0;orthogonalLoop=1;jettySize=auto;html=1;" parent="1" source="mDbuYBa9yOLomnzeckiS-4" target="mDbuYBa9yOLomnzeckiS-12" edge="1"><mxGeometry relative="1" as="geometry"/></mxCell><mxCell id="mDbuYBa9yOLomnzeckiS-19" style="edgeStyle=orthogonalEdgeStyle;rounded=0;orthogonalLoop=1;jettySize=auto;html=1;" parent="1" source="mDbuYBa9yOLomnzeckiS-4" target="mDbuYBa9yOLomnzeckiS-6" edge="1"><mxGeometry relative="1" as="geometry"/></mxCell><object placeholders="1" c4Name="Employee" c4Type="Person" c4Description="HR Easy user" label="&lt;font style=&quot;font-size: 16px&quot;&gt;&lt;b&gt;%c4Name%&lt;/b&gt;&lt;/font&gt;&lt;div&gt;[%c4Type%]&lt;/div&gt;&lt;br&gt;&lt;div&gt;&lt;font style=&quot;font-size: 11px&quot;&gt;&lt;font color=&quot;#cccccc&quot;&gt;%c4Description%&lt;/font&gt;&lt;/div&gt;" id="mDbuYBa9yOLomnzeckiS-4"><mxCell style="html=1;fontSize=11;dashed=0;whiteSpace=wrap;fillColor=#083F75;strokeColor=#06315C;fontColor=#ffffff;shape=mxgraph.c4.person2;align=center;metaEdit=1;points=[[0.5,0,0],[1,0.5,0],[1,0.75,0],[0.75,1,0],[0.5,1,0],[0.25,1,0],[0,0.75,0],[0,0.5,0]];resizable=0;" parent="1" vertex="1"><mxGeometry x="80" y="363" width="200" height="180" as="geometry"/></mxCell></object><mxCell id="mDbuYBa9yOLomnzeckiS-6" value="" style="sketch=0;pointerEvents=1;shadow=0;dashed=0;html=1;strokeColor=none;fillColor=#505050;labelPosition=center;verticalLabelPosition=bottom;verticalAlign=top;outlineConnect=0;align=center;shape=mxgraph.office.devices.cell_phone_iphone_standalone;" parent="1" vertex="1"><mxGeometry x="350" y="280" width="75" height="138" as="geometry"/></mxCell><object placeholders="1" c4Name="Telegram" c4Type="Software System" c4Description="https://t.me" label="&lt;font style=&quot;font-size: 16px&quot;&gt;&lt;b&gt;%c4Name%&lt;/b&gt;&lt;/font&gt;&lt;div&gt;[%c4Type%]&lt;/div&gt;&lt;br&gt;&lt;div&gt;&lt;font style=&quot;font-size: 11px&quot;&gt;&lt;font color=&quot;#cccccc&quot;&gt;%c4Description%&lt;/font&gt;&lt;/div&gt;" id="mDbuYBa9yOLomnzeckiS-11"><mxCell style="rounded=1;whiteSpace=wrap;html=1;labelBackgroundColor=none;fillColor=#8C8496;fontColor=#ffffff;align=center;arcSize=10;strokeColor=#736782;metaEdit=1;resizable=0;points=[[0.25,0,0],[0.5,0,0],[0.75,0,0],[1,0.25,0],[1,0.5,0],[1,0.75,0],[0.75,1,0],[0.5,1,0],[0.25,1,0],[0,0.75,0],[0,0.5,0],[0,0.25,0]];" parent="1" vertex="1"><mxGeometry x="700" y="160" width="240" height="120" as="geometry"/></mxCell></object><object placeholders="1" c4Name="HR Easy Web" c4Type="Container" c4Technology="Vue2 SPA" c4Description="" label="&lt;font style=&quot;font-size: 16px&quot;&gt;&lt;b&gt;%c4Name%&lt;/b&gt;&lt;/font&gt;&lt;div&gt;[%c4Type%:&amp;nbsp;%c4Technology%]&lt;/div&gt;&lt;br&gt;&lt;div&gt;&lt;font style=&quot;font-size: 11px&quot;&gt;&lt;font color=&quot;#E6E6E6&quot;&gt;%c4Description%&lt;/font&gt;&lt;/div&gt;" id="mDbuYBa9yOLomnzeckiS-12"><mxCell style="shape=mxgraph.c4.webBrowserContainer2;whiteSpace=wrap;html=1;boundedLbl=1;rounded=0;labelBackgroundColor=none;strokeColor=#118ACD;fillColor=#23A2D9;strokeColor=#118ACD;strokeColor2=#0E7DAD;fontSize=12;fontColor=#ffffff;align=center;metaEdit=1;points=[[0.5,0,0],[1,0.25,0],[1,0.5,0],[1,0.75,0],[0.5,1,0],[0,0.75,0],[0,0.5,0],[0,0.25,0]];resizable=0;" parent="1" vertex="1"><mxGeometry x="260" y="610" width="240" height="160" as="geometry"/></mxCell></object><object placeholders="1" c4Name="SSL termination" c4Type="Container" c4Technology="nginx" c4Description="HTTP Server with SSL sertificates" label="&lt;font style=&quot;font-size: 16px&quot;&gt;&lt;b&gt;%c4Name%&lt;/b&gt;&lt;/font&gt;&lt;div&gt;[%c4Type%:&amp;nbsp;%c4Technology%]&lt;/div&gt;&lt;br&gt;&lt;div&gt;&lt;font style=&quot;font-size: 11px&quot;&gt;&lt;font color=&quot;#E6E6E6&quot;&gt;%c4Description%&lt;/font&gt;&lt;/div&gt;" id="mDbuYBa9yOLomnzeckiS-14"><mxCell style="shape=hexagon;size=50;perimeter=hexagonPerimeter2;whiteSpace=wrap;html=1;fixedSize=1;rounded=1;labelBackgroundColor=none;fillColor=#23A2D9;fontSize=12;fontColor=#ffffff;align=center;strokeColor=#0E7DAD;metaEdit=1;points=[[0.5,0,0],[1,0.25,0],[1,0.5,0],[1,0.75,0],[0.5,1,0],[0,0.75,0],[0,0.5,0],[0,0.25,0]];resizable=0;" parent="1" vertex="1"><mxGeometry x="540" y="410" width="200" height="170" as="geometry"/></mxCell></object><object placeholders="1" c4Name="hreasyweb" c4Type="Container" c4Technology="nginx" c4Description="Static content and&#10;API reverse proxy" label="&lt;font style=&quot;font-size: 16px&quot;&gt;&lt;b&gt;%c4Name%&lt;/b&gt;&lt;/font&gt;&lt;div&gt;[%c4Type%:&amp;nbsp;%c4Technology%]&lt;/div&gt;&lt;br&gt;&lt;div&gt;&lt;font style=&quot;font-size: 11px&quot;&gt;&lt;font color=&quot;#E6E6E6&quot;&gt;%c4Description%&lt;/font&gt;&lt;/div&gt;" id="mDbuYBa9yOLomnzeckiS-18"><mxCell style="shape=hexagon;size=50;perimeter=hexagonPerimeter2;whiteSpace=wrap;html=1;fixedSize=1;rounded=1;labelBackgroundColor=none;fillColor=#23A2D9;fontSize=12;fontColor=#ffffff;align=center;strokeColor=#0E7DAD;metaEdit=1;points=[[0.5,0,0],[1,0.25,0],[1,0.5,0],[1,0.75,0],[0.5,1,0],[0,0.75,0],[0,0.5,0],[0,0.25,0]];resizable=0;" parent="1" vertex="1"><mxGeometry x="750" y="410" width="200" height="170" as="geometry"/></mxCell></object><object placeholders="1" c4Type="Relationship" c4Technology="HTTPS" c4Description="User requests" label="&lt;div style=&quot;text-align: left&quot;&gt;&lt;div style=&quot;text-align: center&quot;&gt;&lt;b&gt;%c4Description%&lt;/b&gt;&lt;/div&gt;&lt;div style=&quot;text-align: center&quot;&gt;[%c4Technology%]&lt;/div&gt;&lt;/div&gt;" id="mDbuYBa9yOLomnzeckiS-23"><mxCell style="endArrow=blockThin;html=1;fontSize=10;fontColor=#404040;strokeWidth=1;endFill=1;strokeColor=#828282;elbow=vertical;metaEdit=1;endSize=14;startSize=14;jumpStyle=arc;jumpSize=16;rounded=0;edgeStyle=orthogonalEdgeStyle;entryX=0;entryY=0.5;entryDx=0;entryDy=0;entryPerimeter=0;" parent="1" source="mDbuYBa9yOLomnzeckiS-12" target="mDbuYBa9yOLomnzeckiS-14" edge="1"><mxGeometry width="240" relative="1" as="geometry"><mxPoint x="650" y="440" as="sourcePoint"/><mxPoint x="890" y="440" as="targetPoint"/></mxGeometry></mxCell></object><object placeholders="1" c4Type="Relationship" c4Technology="HTTP" c4Description="User Requests" label="&lt;div style=&quot;text-align: left&quot;&gt;&lt;div style=&quot;text-align: center&quot;&gt;&lt;b&gt;%c4Description%&lt;/b&gt;&lt;/div&gt;&lt;div style=&quot;text-align: center&quot;&gt;[%c4Technology%]&lt;/div&gt;&lt;/div&gt;" id="mDbuYBa9yOLomnzeckiS-25"><mxCell style="endArrow=blockThin;html=1;fontSize=10;fontColor=#404040;strokeWidth=1;endFill=1;strokeColor=#828282;elbow=vertical;metaEdit=1;endSize=14;startSize=14;jumpStyle=arc;jumpSize=16;rounded=0;edgeStyle=orthogonalEdgeStyle;exitX=0.5;exitY=0;exitDx=0;exitDy=0;exitPerimeter=0;entryX=0.5;entryY=0;entryDx=0;entryDy=0;entryPerimeter=0;" parent="1" source="mDbuYBa9yOLomnzeckiS-14" target="mDbuYBa9yOLomnzeckiS-18" edge="1"><mxGeometry width="240" relative="1" as="geometry"><mxPoint x="660" y="650" as="sourcePoint"/><mxPoint x="820" y="495" as="targetPoint"/><Array as="points"><mxPoint x="640" y="380"/><mxPoint x="850" y="380"/></Array></mxGeometry></mxCell></object><object placeholders="1" c4Type="Relationship" c4Technology="HTTPS" c4Description="User Requests" label="&lt;div style=&quot;text-align: left&quot;&gt;&lt;div style=&quot;text-align: center&quot;&gt;&lt;b&gt;%c4Description%&lt;/b&gt;&lt;/div&gt;&lt;div style=&quot;text-align: center&quot;&gt;[%c4Technology%]&lt;/div&gt;&lt;/div&gt;" id="mDbuYBa9yOLomnzeckiS-26"><mxCell style="endArrow=blockThin;html=1;fontSize=10;fontColor=#404040;strokeWidth=1;endFill=1;strokeColor=#828282;elbow=vertical;metaEdit=1;endSize=14;startSize=14;jumpStyle=arc;jumpSize=16;rounded=0;edgeStyle=orthogonalEdgeStyle;entryX=0;entryY=0.5;entryDx=0;entryDy=0;entryPerimeter=0;" parent="1" source="mDbuYBa9yOLomnzeckiS-6" target="mDbuYBa9yOLomnzeckiS-11" edge="1"><mxGeometry width="240" relative="1" as="geometry"><mxPoint x="660" y="650" as="sourcePoint"/><mxPoint x="820" y="495" as="targetPoint"/></mxGeometry></mxCell></object><object placeholders="1" c4Name="hreasytg" c4Type="Container" c4Technology="SpringBoot" c4Description="Telegram Bot Service" label="&lt;font style=&quot;font-size: 16px&quot;&gt;&lt;b&gt;%c4Name%&lt;/b&gt;&lt;/font&gt;&lt;div&gt;[%c4Type%:&amp;nbsp;%c4Technology%]&lt;/div&gt;&lt;br&gt;&lt;div&gt;&lt;font style=&quot;font-size: 11px&quot;&gt;&lt;font color=&quot;#E6E6E6&quot;&gt;%c4Description%&lt;/font&gt;&lt;/div&gt;" id="mDbuYBa9yOLomnzeckiS-27"><mxCell style="shape=hexagon;size=50;perimeter=hexagonPerimeter2;whiteSpace=wrap;html=1;fixedSize=1;rounded=1;labelBackgroundColor=none;fillColor=#23A2D9;fontSize=12;fontColor=#ffffff;align=center;strokeColor=#0E7DAD;metaEdit=1;points=[[0.5,0,0],[1,0.25,0],[1,0.5,0],[1,0.75,0],[0.5,1,0],[0,0.75,0],[0,0.5,0],[0,0.25,0]];resizable=0;" parent="1" vertex="1"><mxGeometry x="1090" y="410" width="200" height="170" as="geometry"/></mxCell></object><object placeholders="1" c4Name="hreasyplatform" c4Type="Container" c4Technology="SpringBoot" c4Description="HR Easy Platform" label="&lt;font style=&quot;font-size: 16px&quot;&gt;&lt;b&gt;%c4Name%&lt;/b&gt;&lt;/font&gt;&lt;div&gt;[%c4Type%:&amp;nbsp;%c4Technology%]&lt;/div&gt;&lt;br&gt;&lt;div&gt;&lt;font style=&quot;font-size: 11px&quot;&gt;&lt;font color=&quot;#E6E6E6&quot;&gt;%c4Description%&lt;/font&gt;&lt;/div&gt;" id="mDbuYBa9yOLomnzeckiS-28"><mxCell style="shape=hexagon;size=50;perimeter=hexagonPerimeter2;whiteSpace=wrap;html=1;fixedSize=1;rounded=1;labelBackgroundColor=none;fillColor=#23A2D9;fontSize=12;fontColor=#ffffff;align=center;strokeColor=#0E7DAD;metaEdit=1;points=[[0.5,0,0],[1,0.25,0],[1,0.5,0],[1,0.75,0],[0.5,1,0],[0,0.75,0],[0,0.5,0],[0,0.25,0]];resizable=0;" parent="1" vertex="1"><mxGeometry x="920" y="600" width="200" height="170" as="geometry"/></mxCell></object><object placeholders="1" c4Type="Relationship" c4Technology="HTTP" c4Description="API calls" label="&lt;div style=&quot;text-align: left&quot;&gt;&lt;div style=&quot;text-align: center&quot;&gt;&lt;b&gt;%c4Description%&lt;/b&gt;&lt;/div&gt;&lt;div style=&quot;text-align: center&quot;&gt;[%c4Technology%]&lt;/div&gt;&lt;/div&gt;" id="mDbuYBa9yOLomnzeckiS-31"><mxCell style="endArrow=blockThin;html=1;fontSize=10;fontColor=#404040;strokeWidth=1;endFill=1;strokeColor=#828282;elbow=vertical;metaEdit=1;endSize=14;startSize=14;jumpStyle=arc;jumpSize=16;rounded=0;edgeStyle=orthogonalEdgeStyle;exitX=1;exitY=0.5;exitDx=0;exitDy=0;exitPerimeter=0;entryX=0.5;entryY=0;entryDx=0;entryDy=0;entryPerimeter=0;" parent="1" source="mDbuYBa9yOLomnzeckiS-18" target="mDbuYBa9yOLomnzeckiS-28" edge="1"><mxGeometry width="240" relative="1" as="geometry"><mxPoint x="650" y="610" as="sourcePoint"/><mxPoint x="890" y="610" as="targetPoint"/><Array as="points"><mxPoint x="990" y="495"/><mxPoint x="990" y="560"/><mxPoint x="1020" y="560"/></Array></mxGeometry></mxCell></object><object placeholders="1" c4Type="Relationship" c4Technology="HTTP" c4Description="API calls" label="&lt;div style=&quot;text-align: left&quot;&gt;&lt;div style=&quot;text-align: center&quot;&gt;&lt;b&gt;%c4Description%&lt;/b&gt;&lt;/div&gt;&lt;div style=&quot;text-align: center&quot;&gt;[%c4Technology%]&lt;/div&gt;&lt;/div&gt;" id="mDbuYBa9yOLomnzeckiS-33"><mxCell style="endArrow=blockThin;html=1;fontSize=10;fontColor=#404040;strokeWidth=1;endFill=1;strokeColor=#828282;elbow=vertical;metaEdit=1;endSize=14;startSize=14;jumpStyle=arc;jumpSize=16;rounded=0;edgeStyle=orthogonalEdgeStyle;entryX=0.5;entryY=0;entryDx=0;entryDy=0;entryPerimeter=0;" parent="1" source="mDbuYBa9yOLomnzeckiS-27" target="mDbuYBa9yOLomnzeckiS-28" edge="1"><mxGeometry width="240" relative="1" as="geometry"><mxPoint x="650" y="610" as="sourcePoint"/><mxPoint x="890" y="610" as="targetPoint"/><Array as="points"><mxPoint x="1050" y="495"/><mxPoint x="1050" y="560"/><mxPoint x="1020" y="560"/></Array></mxGeometry></mxCell></object><object placeholders="1" c4Name="hreasypg" c4Type="Container" c4Technology="Postgres" c4Description="HR Easy Database" label="&lt;font style=&quot;font-size: 16px&quot;&gt;&lt;b&gt;%c4Name%&lt;/b&gt;&lt;/font&gt;&lt;div&gt;[%c4Type%:&amp;nbsp;%c4Technology%]&lt;/div&gt;&lt;br&gt;&lt;div&gt;&lt;font style=&quot;font-size: 11px&quot;&gt;&lt;font color=&quot;#E6E6E6&quot;&gt;%c4Description%&lt;/font&gt;&lt;/div&gt;" id="mDbuYBa9yOLomnzeckiS-34"><mxCell style="shape=cylinder3;size=15;whiteSpace=wrap;html=1;boundedLbl=1;rounded=0;labelBackgroundColor=none;fillColor=#23A2D9;fontSize=12;fontColor=#ffffff;align=center;strokeColor=#0E7DAD;metaEdit=1;points=[[0.5,0,0],[1,0.25,0],[1,0.5,0],[1,0.75,0],[0.5,1,0],[0,0.75,0],[0,0.5,0],[0,0.25,0]];resizable=0;" parent="1" vertex="1"><mxGeometry x="860" y="820" width="240" height="120" as="geometry"/></mxCell></object><object placeholders="1" c4Type="Relationship" c4Technology="postgre" c4Description="" label="&lt;div style=&quot;text-align: left&quot;&gt;&lt;div style=&quot;text-align: center&quot;&gt;&lt;b&gt;%c4Description%&lt;/b&gt;&lt;/div&gt;&lt;div style=&quot;text-align: center&quot;&gt;[%c4Technology%]&lt;/div&gt;&lt;/div&gt;" id="mDbuYBa9yOLomnzeckiS-36"><mxCell style="endArrow=blockThin;html=1;fontSize=10;fontColor=#404040;strokeWidth=1;endFill=1;strokeColor=#828282;elbow=vertical;metaEdit=1;endSize=14;startSize=14;jumpStyle=arc;jumpSize=16;rounded=0;edgeStyle=orthogonalEdgeStyle;exitX=0.5;exitY=1;exitDx=0;exitDy=0;exitPerimeter=0;" parent="1" source="mDbuYBa9yOLomnzeckiS-28" target="mDbuYBa9yOLomnzeckiS-34" edge="1"><mxGeometry x="-0.7841" width="240" relative="1" as="geometry"><mxPoint x="750" y="730" as="sourcePoint"/><mxPoint x="990" y="730" as="targetPoint"/><mxPoint as="offset"/></mxGeometry></mxCell></object><mxCell id="mDbuYBa9yOLomnzeckiS-38" value="&lt;b&gt;HR Easy Store&lt;/b&gt;&lt;br&gt;[folder on fs]&lt;br&gt;&lt;font color=&quot;#999999&quot; style=&quot;font-size: 12px;&quot;&gt;Images, Documents, etc&lt;/font&gt;" style="image;aspect=fixed;perimeter=ellipsePerimeter;html=1;align=center;shadow=0;dashed=0;spacingTop=-90;image=img/lib/active_directory/folder.svg;imageBackground=none;" parent="1" vertex="1"><mxGeometry x="1160" y="790" width="124.1" height="170" as="geometry"/></mxCell><object placeholders="1" c4Type="Relationship" c4Technology="FileSystem" c4Description="Get and update Documents and Photos" label="&lt;div style=&quot;text-align: left&quot;&gt;&lt;div style=&quot;text-align: center&quot;&gt;&lt;b&gt;%c4Description%&lt;/b&gt;&lt;/div&gt;&lt;div style=&quot;text-align: center&quot;&gt;[%c4Technology%]&lt;/div&gt;&lt;/div&gt;" id="mDbuYBa9yOLomnzeckiS-39"><mxCell style="endArrow=blockThin;html=1;fontSize=10;fontColor=#404040;strokeWidth=1;endFill=1;strokeColor=#828282;elbow=vertical;metaEdit=1;endSize=14;startSize=14;jumpStyle=arc;jumpSize=16;rounded=0;edgeStyle=orthogonalEdgeStyle;exitX=1;exitY=0.5;exitDx=0;exitDy=0;exitPerimeter=0;" parent="1" source="mDbuYBa9yOLomnzeckiS-28" target="mDbuYBa9yOLomnzeckiS-38" edge="1"><mxGeometry x="0.4206" y="-12" width="240" relative="1" as="geometry"><mxPoint x="750" y="730" as="sourcePoint"/><mxPoint x="990" y="730" as="targetPoint"/><mxPoint as="offset"/></mxGeometry></mxCell></object><object placeholders="1" c4Type="Relationship" c4Technology="HTTPS" c4Description="New Command Polling" label="&lt;div style=&quot;text-align: left&quot;&gt;&lt;div style=&quot;text-align: center&quot;&gt;&lt;b&gt;%c4Description%&lt;/b&gt;&lt;/div&gt;&lt;div style=&quot;text-align: center&quot;&gt;[%c4Technology%]&lt;/div&gt;&lt;/div&gt;" id="mDbuYBa9yOLomnzeckiS-40"><mxCell style="endArrow=blockThin;html=1;fontSize=10;fontColor=#404040;strokeWidth=1;endFill=1;strokeColor=#828282;elbow=vertical;metaEdit=1;endSize=14;startSize=14;jumpStyle=arc;jumpSize=16;rounded=0;edgeStyle=orthogonalEdgeStyle;entryX=1;entryY=0.5;entryDx=0;entryDy=0;entryPerimeter=0;exitX=0.5;exitY=0;exitDx=0;exitDy=0;exitPerimeter=0;" parent="1" source="mDbuYBa9yOLomnzeckiS-27" target="mDbuYBa9yOLomnzeckiS-11" edge="1"><mxGeometry x="-0.4091" width="240" relative="1" as="geometry"><mxPoint x="660" y="650" as="sourcePoint"/><mxPoint x="820" y="495" as="targetPoint"/><Array as="points"><mxPoint x="1190" y="220"/></Array><mxPoint y="-1" as="offset"/></mxGeometry></mxCell></object><object placeholders="1" c4Name="Mail Server" c4Type="Software System" c4Description="Sends email to employees" label="&lt;font style=&quot;font-size: 16px&quot;&gt;&lt;b&gt;%c4Name%&lt;/b&gt;&lt;/font&gt;&lt;div&gt;[%c4Type%]&lt;/div&gt;&lt;br&gt;&lt;div&gt;&lt;font style=&quot;font-size: 11px&quot;&gt;&lt;font color=&quot;#cccccc&quot;&gt;%c4Description%&lt;/font&gt;&lt;/div&gt;" id="mDbuYBa9yOLomnzeckiS-41"><mxCell style="rounded=1;whiteSpace=wrap;html=1;labelBackgroundColor=none;fillColor=#8C8496;fontColor=#ffffff;align=center;arcSize=10;strokeColor=#736782;metaEdit=1;resizable=0;points=[[0.25,0,0],[0.5,0,0],[0.75,0,0],[1,0.25,0],[1,0.5,0],[1,0.75,0],[0.75,1,0],[0.5,1,0],[0.25,1,0],[0,0.75,0],[0,0.5,0],[0,0.25,0]];" parent="1" vertex="1"><mxGeometry x="260" y="820" width="240" height="120" as="geometry"/></mxCell></object><object placeholders="1" c4Type="Relationship" c4Technology="SMTP" c4Description="Send emails to employee" label="&lt;div style=&quot;text-align: left&quot;&gt;&lt;div style=&quot;text-align: center&quot;&gt;&lt;b&gt;%c4Description%&lt;/b&gt;&lt;/div&gt;&lt;div style=&quot;text-align: center&quot;&gt;[%c4Technology%]&lt;/div&gt;&lt;/div&gt;" id="mDbuYBa9yOLomnzeckiS-42"><mxCell style="endArrow=blockThin;html=1;fontSize=10;fontColor=#404040;strokeWidth=1;endFill=1;strokeColor=#828282;elbow=vertical;metaEdit=1;endSize=14;startSize=14;jumpStyle=arc;jumpSize=16;rounded=0;edgeStyle=orthogonalEdgeStyle;exitX=0;exitY=0.5;exitDx=0;exitDy=0;exitPerimeter=0;entryX=1;entryY=0.5;entryDx=0;entryDy=0;entryPerimeter=0;" parent="1" source="mDbuYBa9yOLomnzeckiS-28" target="mDbuYBa9yOLomnzeckiS-41" edge="1"><mxGeometry x="-0.0959" width="240" relative="1" as="geometry"><mxPoint x="750" y="730" as="sourcePoint"/><mxPoint x="990" y="730" as="targetPoint"/><mxPoint as="offset"/></mxGeometry></mxCell></object><mxCell id="mDbuYBa9yOLomnzeckiS-43" style="edgeStyle=orthogonalEdgeStyle;rounded=0;orthogonalLoop=1;jettySize=auto;html=1;entryX=0;entryY=0.75;entryDx=0;entryDy=0;entryPerimeter=0;" parent="1" source="mDbuYBa9yOLomnzeckiS-41" target="mDbuYBa9yOLomnzeckiS-4" edge="1"><mxGeometry relative="1" as="geometry"><Array as="points"><mxPoint x="60" y="880"/><mxPoint x="60" y="498"/></Array></mxGeometry></mxCell><object placeholders="1" c4Name="HR Easy Components Diagram" c4Type="ContainerDiagramTitle" c4Description="All HR Easy components.&#10;The direction of the relationship is determined by the network connection, rather than business logic." label="&lt;font style=&quot;font-size: 16px&quot;&gt;&lt;b&gt;&lt;div style=&quot;text-align: left&quot;&gt;%c4Name%&lt;/div&gt;&lt;/b&gt;&lt;/font&gt;&lt;div style=&quot;text-align: left&quot;&gt;%c4Description%&lt;/div&gt;" id="mDbuYBa9yOLomnzeckiS-44"><mxCell style="text;html=1;strokeColor=none;fillColor=none;align=left;verticalAlign=top;whiteSpace=wrap;rounded=0;metaEdit=1;allowArrows=0;resizable=1;rotatable=0;connectable=0;recursiveResize=0;expand=0;pointerEvents=0;points=[[0.25,0,0],[0.5,0,0],[0.75,0,0],[1,0.25,0],[1,0.5,0],[1,0.75,0],[0.75,1,0],[0.5,1,0],[0.25,1,0],[0,0.75,0],[0,0.5,0],[0,0.25,0]];" parent="1" vertex="1"><mxGeometry x="30" y="180" width="260" height="40" as="geometry"/></mxCell></object><object placeholders="1" c4Name="Active Directory" c4Type="Software System" c4Description="LDAP Server" label="&lt;font style=&quot;font-size: 16px&quot;&gt;&lt;b&gt;%c4Name%&lt;/b&gt;&lt;/font&gt;&lt;div&gt;[%c4Type%]&lt;/div&gt;&lt;br&gt;&lt;div&gt;&lt;font style=&quot;font-size: 11px&quot;&gt;&lt;font color=&quot;#cccccc&quot;&gt;%c4Description%&lt;/font&gt;&lt;/div&gt;" id="mDbuYBa9yOLomnzeckiS-45"><mxCell style="rounded=1;whiteSpace=wrap;html=1;labelBackgroundColor=none;fillColor=#8C8496;fontColor=#ffffff;align=center;arcSize=10;strokeColor=#736782;metaEdit=1;resizable=0;points=[[0.25,0,0],[0.5,0,0],[0.75,0,0],[1,0.25,0],[1,0.5,0],[1,0.75,0],[0.75,1,0],[0.5,1,0],[0.25,1,0],[0,0.75,0],[0,0.5,0],[0,0.25,0]];" parent="1" vertex="1"><mxGeometry x="260" y="970" width="240" height="120" as="geometry"/></mxCell></object><object placeholders="1" c4Type="Relationship" c4Technology="LDAP" c4Description="Authentication" label="&lt;div style=&quot;text-align: left&quot;&gt;&lt;div style=&quot;text-align: center&quot;&gt;&lt;b&gt;%c4Description%&lt;/b&gt;&lt;/div&gt;&lt;div style=&quot;text-align: center&quot;&gt;[%c4Technology%]&lt;/div&gt;&lt;/div&gt;" id="mDbuYBa9yOLomnzeckiS-46"><mxCell style="endArrow=blockThin;html=1;fontSize=10;fontColor=#404040;strokeWidth=1;endFill=1;strokeColor=#828282;elbow=vertical;metaEdit=1;endSize=14;startSize=14;jumpStyle=arc;jumpSize=16;rounded=0;edgeStyle=orthogonalEdgeStyle;exitX=0;exitY=0.5;exitDx=0;exitDy=0;exitPerimeter=0;entryX=1;entryY=0.5;entryDx=0;entryDy=0;entryPerimeter=0;" parent="1" source="mDbuYBa9yOLomnzeckiS-28" target="mDbuYBa9yOLomnzeckiS-45" edge="1"><mxGeometry x="0.6079" width="240" relative="1" as="geometry"><mxPoint x="750" y="730" as="sourcePoint"/><mxPoint x="990" y="730" as="targetPoint"/><Array as="points"><mxPoint x="790" y="685"/><mxPoint x="790" y="1030"/></Array><mxPoint as="offset"/></mxGeometry></mxCell></object></root></mxGraphModel></diagram></mxfile>